# xmcd
#
# Track frame offsets: 
#        150
#        13658
#        31406
#        54134
#        71878
#        91781
#        118875
#        130671
#        149428
#        172896
#        183565
#
# Disc length: 2640 seconds
#
# Revision: 0
# Processed by: cddbd v1.5.2PL0 Copyright (c) Steve Scherf et al.
# Submitted via: ExactAudioCopy v0.99pb5
#
DISCID=930a4e0b
DTITLE=Garland Jeffries - Garland Jeffries
DYEAR=1973
DGENRE=Soul
TTITLE0=Ballad of Me
TTITLE1=Harlem Bound
TTITLE2=Calcutta Monsoon
TTITLE3=Bound to Get Ahead Someday
TTITLE4=Lovelight
TTITLE5=She Didn't Lie
TTITLE6=True to Me
TTITLE7=Lon Chaney
TTITLE8=Eggs
TTITLE9=Zoo
TTITLE10=Midnite Cane
EXTD=
EXTT0=
EXTT1=
EXTT2=
EXTT3=
EXTT4=
EXTT5=
EXTT6=
EXTT7=
EXTT8=
EXTT9=
EXTT10=
PLAYORDER=
